<?xml version="1.0" encoding="UTF-8" standalone="no"?>
<!DOCTYPE svg PUBLIC "-//W3C//DTD SVG 1.1//EN" "http://www.w3.org/Graphics/SVG/1.1/DTD/svg11.dtd">
<svg width="100%" height="100%" viewBox="0 0 1701 1733" version="1.1" xmlns="http://www.w3.org/2000/svg" xmlns:xlink="http://www.w3.org/1999/xlink" xml:space="preserve" xmlns:serif="http://www.serif.com/" style="fill-rule:evenodd;clip-rule:evenodd;stroke-linejoin:round;stroke-miterlimit:2;">
    <g transform="matrix(1,0,0,1,-25516.4,-6054.95)">
        <g transform="matrix(1,0,0,1.35753,25511.4,3741.3)">
            <g transform="matrix(2.69407,-0.435633,0.591387,1.98453,-65061.2,1645.17)">
                <path d="M23281.1,5213.9L23268.8,5206.8L23050.2,5333.03L23050.2,5585.49L23268.8,5711.72L23487.5,5585.49L23487.5,5333.03L23281.1,5213.9ZM23268.8,5263.62L23438.2,5361.44C23438.2,5361.44 23438.2,5557.08 23438.2,5557.08C23438.2,5557.08 23268.8,5654.9 23268.8,5654.9C23268.8,5654.9 23099.4,5557.08 23099.4,5557.08C23099.4,5557.08 23099.4,5361.44 23099.4,5361.44L23268.8,5263.62Z" style="fill:rgb(123,140,59);"/>
                <path d="M23296.2,5187.74L23268.8,5171.92L23020,5315.59L23020,5602.94L23268.8,5746.61L23517.7,5602.94L23517.7,5315.59L23296.2,5187.74ZM23281.1,5213.9L23268.8,5206.8L23050.2,5333.03L23050.2,5585.49L23268.8,5711.72L23487.5,5585.49L23487.5,5333.03L23281.1,5213.9ZM23268.8,5263.62L23438.2,5361.44C23438.2,5361.44 23438.2,5557.08 23438.2,5557.08C23438.2,5557.08 23268.8,5654.9 23268.8,5654.9C23268.8,5654.9 23099.4,5557.08 23099.4,5557.08C23099.4,5557.08 23099.4,5361.44 23099.4,5361.44L23268.8,5263.62ZM23268.8,5298.51L23408.1,5378.9C23408.1,5415.02 23408,5502.31 23408,5539.66C23408,5539.66 23307.6,5597.61 23268.8,5620.03C23268.8,5620.03 23129.6,5539.62 23129.6,5539.62C23129.6,5539.62 23129.6,5378.89 23129.6,5378.89C23161.8,5360.32 23236.7,5317.07 23268.8,5298.51L23268.8,5298.51Z" style="fill:white;"/>
            </g>
        </g>
    </g>
</svg>
