<?xml version="1.0" encoding="UTF-8" standalone="no"?>
<!DOCTYPE svg PUBLIC "-//W3C//DTD SVG 1.1//EN" "http://www.w3.org/Graphics/SVG/1.1/DTD/svg11.dtd">
<svg width="100%" height="100%" viewBox="0 0 1775 1908" version="1.1" xmlns="http://www.w3.org/2000/svg" xmlns:xlink="http://www.w3.org/1999/xlink" xml:space="preserve" xmlns:serif="http://www.serif.com/" style="fill-rule:evenodd;clip-rule:evenodd;stroke-linejoin:round;stroke-miterlimit:2;">
    <g transform="matrix(1,0,0,1,-25407,-4786.63)">
        <g transform="matrix(1,0,0,1.35753,25511.4,3741.3)">
            <g transform="matrix(3.03944,0.213647,-0.290033,2.23894,-68357.6,-15721.7)">
                <path d="M23281.1,5213.9L23268.8,5206.8L23050.2,5333.03L23050.2,5585.49L23268.8,5711.72L23487.5,5585.49L23487.5,5333.03L23281.1,5213.9ZM23268.8,5263.62L23438.2,5361.44C23438.2,5361.44 23438.2,5557.08 23438.2,5557.08C23438.2,5557.08 23268.8,5654.9 23268.8,5654.9C23268.8,5654.9 23099.4,5557.08 23099.4,5557.08C23099.4,5557.08 23099.4,5361.44 23099.4,5361.44L23268.8,5263.62Z" style="fill:rgb(240,180,53);"/>
                <path d="M23514.7,5317.28L23268.8,5175.29L23022.9,5317.28L23022.9,5601.25L23268.8,5743.24L23514.7,5601.25L23514.7,5317.28ZM23281.1,5213.9L23268.8,5206.8L23050.2,5333.03L23050.2,5585.49L23268.8,5711.72L23487.5,5585.49L23487.5,5333.03L23281.1,5213.9ZM23268.8,5263.62L23438.2,5361.44C23438.2,5361.44 23438.2,5557.08 23438.2,5557.08C23438.2,5557.08 23268.8,5654.9 23268.8,5654.9C23268.8,5654.9 23099.4,5557.08 23099.4,5557.08C23099.4,5557.08 23099.4,5361.44 23099.4,5361.44L23268.8,5263.62ZM23268.8,5295.14C23268.8,5295.14 23373,5355.3 23411,5377.21C23411,5377.21 23411,5541.34 23411,5541.34C23379.9,5559.27 23300.7,5604.98 23268.8,5623.4C23268.8,5623.4 23164.6,5563.23 23126.6,5541.31C23126.7,5505.76 23126.7,5414.12 23126.7,5377.2C23164.7,5355.27 23268.8,5295.14 23268.8,5295.14L23268.8,5295.14Z" style="fill:white;"/>
            </g>
        </g>
    </g>
</svg>
