<?xml version="1.0" encoding="UTF-8" standalone="no"?>
<!DOCTYPE svg PUBLIC "-//W3C//DTD SVG 1.1//EN" "http://www.w3.org/Graphics/SVG/1.1/DTD/svg11.dtd">
<svg width="100%" height="100%" viewBox="0 0 1625 1641" version="1.1" xmlns="http://www.w3.org/2000/svg" xmlns:xlink="http://www.w3.org/1999/xlink" xml:space="preserve" xmlns:serif="http://www.serif.com/" style="fill-rule:evenodd;clip-rule:evenodd;stroke-linejoin:round;stroke-miterlimit:2;">
    <g transform="matrix(1,0,0,1,-26449.9,-5421.13)">
        <g transform="matrix(1,0,0,1.35753,25511.4,3741.3)">
            <g transform="matrix(2.51058,0.447941,-0.608096,1.84937,-53347.9,-18677.7)">
                <path d="M23281.1,5213.9L23268.8,5206.8L23050.2,5333.03L23050.2,5585.49L23268.8,5711.72L23487.5,5585.49L23487.5,5333.03L23281.1,5213.9ZM23268.8,5263.62L23438.2,5361.44C23438.2,5361.44 23438.2,5557.08 23438.2,5557.08C23438.2,5557.08 23268.8,5654.9 23268.8,5654.9C23268.8,5654.9 23099.4,5557.08 23099.4,5557.08C23099.4,5557.08 23099.4,5361.44 23099.4,5361.44L23268.8,5263.62Z" style="fill:rgb(1,64,64);"/>
                <path d="M23297.2,5185.97L23268.8,5169.55L23017.9,5314.41L23017.9,5604.12L23268.8,5748.97L23519.7,5604.12L23519.7,5314.41L23297.2,5185.97ZM23281.1,5213.9L23268.8,5206.8L23050.2,5333.03L23050.2,5585.49L23268.8,5711.72L23487.5,5585.49L23487.5,5333.03L23281.1,5213.9ZM23268.8,5263.62L23438.2,5361.44C23438.2,5361.44 23438.2,5557.08 23438.2,5557.08C23438.2,5557.08 23268.8,5654.9 23268.8,5654.9C23268.8,5654.9 23099.4,5557.08 23099.4,5557.08C23099.4,5557.08 23099.4,5361.44 23099.4,5361.44L23268.8,5263.62ZM23268.8,5300.87L23406,5380.08C23406,5380.08 23406,5538.48 23406,5538.48C23406,5538.48 23308.2,5594.95 23268.8,5617.67C23268.8,5617.67 23131.6,5538.44 23131.6,5538.44C23131.6,5538.44 23131.6,5425.53 23131.6,5380.07C23131.6,5380.07 23268.8,5300.87 23268.8,5300.87L23268.8,5300.87Z" style="fill:white;"/>
            </g>
        </g>
    </g>
</svg>
