<?xml version="1.0" encoding="UTF-8" standalone="no"?>
<!DOCTYPE svg PUBLIC "-//W3C//DTD SVG 1.1//EN" "http://www.w3.org/Graphics/SVG/1.1/DTD/svg11.dtd">
<svg width="100%" height="100%" viewBox="0 0 2667 3002" version="1.1" xmlns="http://www.w3.org/2000/svg" xmlns:xlink="http://www.w3.org/1999/xlink" xml:space="preserve" xmlns:serif="http://www.serif.com/" style="fill-rule:evenodd;clip-rule:evenodd;stroke-linejoin:round;stroke-miterlimit:2;">
    <g transform="matrix(1,0,0,1,-25407,-4786.63)">
        <g transform="matrix(1,0,0,1.35753,25511.4,3741.3)">
            <g transform="matrix(2.51058,0.447941,-0.608096,1.84937,-53347.9,-18677.7)">
                <path d="M23281.1,5213.9L23268.8,5206.8L23050.2,5333.03L23050.2,5585.49L23268.8,5711.72L23487.5,5585.49L23487.5,5333.03L23281.1,5213.9ZM23268.8,5263.62L23438.2,5361.44C23438.2,5361.44 23438.2,5557.08 23438.2,5557.08C23438.2,5557.08 23268.8,5654.9 23268.8,5654.9C23268.8,5654.9 23099.4,5557.08 23099.4,5557.08C23099.4,5557.08 23099.4,5361.44 23099.4,5361.44L23268.8,5263.62Z" style="fill:rgb(1,64,64);"/>
                <path d="M23297.2,5185.97L23268.8,5169.55L23017.9,5314.41L23017.9,5604.12L23268.8,5748.97L23519.7,5604.12L23519.7,5314.41L23297.2,5185.97ZM23281.1,5213.9L23268.8,5206.8L23050.2,5333.03L23050.2,5585.49L23268.8,5711.72L23487.5,5585.49L23487.5,5333.03L23281.1,5213.9ZM23268.8,5263.62L23438.2,5361.44C23438.2,5361.44 23438.2,5557.08 23438.2,5557.08C23438.2,5557.08 23268.8,5654.9 23268.8,5654.9C23268.8,5654.9 23099.4,5557.08 23099.4,5557.08C23099.4,5557.08 23099.4,5361.44 23099.4,5361.44L23268.8,5263.62ZM23268.8,5300.87L23406,5380.08C23406,5380.08 23406,5538.48 23406,5538.48C23406,5538.48 23308.2,5594.95 23268.8,5617.67C23268.8,5617.67 23131.6,5538.44 23131.6,5538.44C23131.6,5538.44 23131.6,5425.53 23131.6,5380.07C23131.6,5380.07 23268.8,5300.87 23268.8,5300.87L23268.8,5300.87Z" style="fill:white;"/>
            </g>
        </g>
        <g transform="matrix(1,0,0,1.35753,25511.4,3741.3)">
            <g transform="matrix(3.03944,0.213647,-0.290033,2.23894,-68357.6,-15721.7)">
                <path d="M23281.1,5213.9L23268.8,5206.8L23050.2,5333.03L23050.2,5585.49L23268.8,5711.72L23487.5,5585.49L23487.5,5333.03L23281.1,5213.9ZM23268.8,5263.62L23438.2,5361.44C23438.2,5361.44 23438.2,5557.08 23438.2,5557.08C23438.2,5557.08 23268.8,5654.9 23268.8,5654.9C23268.8,5654.9 23099.4,5557.08 23099.4,5557.08C23099.4,5557.08 23099.4,5361.44 23099.4,5361.44L23268.8,5263.62Z" style="fill:rgb(240,180,53);"/>
                <path d="M23514.7,5317.28L23268.8,5175.29L23022.9,5317.28L23022.9,5601.25L23268.8,5743.24L23514.7,5601.25L23514.7,5317.28ZM23281.1,5213.9L23268.8,5206.8L23050.2,5333.03L23050.2,5585.49L23268.8,5711.72L23487.5,5585.49L23487.5,5333.03L23281.1,5213.9ZM23268.8,5263.62L23438.2,5361.44C23438.2,5361.44 23438.2,5557.08 23438.2,5557.08C23438.2,5557.08 23268.8,5654.9 23268.8,5654.9C23268.8,5654.9 23099.4,5557.08 23099.4,5557.08C23099.4,5557.08 23099.4,5361.44 23099.4,5361.44L23268.8,5263.62ZM23268.8,5295.14C23268.8,5295.14 23373,5355.3 23411,5377.21C23411,5377.21 23411,5541.34 23411,5541.34C23379.9,5559.27 23300.7,5604.98 23268.8,5623.4C23268.8,5623.4 23164.6,5563.23 23126.6,5541.31C23126.7,5505.76 23126.7,5414.12 23126.7,5377.2C23164.7,5355.27 23268.8,5295.14 23268.8,5295.14L23268.8,5295.14Z" style="fill:white;"/>
            </g>
        </g>
        <g transform="matrix(1,0,0,1.35753,25511.4,3741.3)">
            <g transform="matrix(2.69407,-0.435633,0.591387,1.98453,-65061.2,1645.17)">
                <path d="M23281.1,5213.9L23268.8,5206.8L23050.2,5333.03L23050.2,5585.49L23268.8,5711.72L23487.5,5585.49L23487.5,5333.03L23281.1,5213.9ZM23268.8,5263.62L23438.2,5361.44C23438.2,5361.44 23438.2,5557.08 23438.2,5557.08C23438.2,5557.08 23268.8,5654.9 23268.8,5654.9C23268.8,5654.9 23099.4,5557.08 23099.4,5557.08C23099.4,5557.08 23099.4,5361.44 23099.4,5361.44L23268.8,5263.62Z" style="fill:rgb(123,140,59);"/>
                <path d="M23296.2,5187.74L23268.8,5171.92L23020,5315.59L23020,5602.94L23268.8,5746.61L23517.7,5602.94L23517.7,5315.59L23296.2,5187.74ZM23281.1,5213.9L23268.8,5206.8L23050.2,5333.03L23050.2,5585.49L23268.8,5711.72L23487.5,5585.49L23487.5,5333.03L23281.1,5213.9ZM23268.8,5263.62L23438.2,5361.44C23438.2,5361.44 23438.2,5557.08 23438.2,5557.08C23438.2,5557.08 23268.8,5654.9 23268.8,5654.9C23268.8,5654.9 23099.4,5557.08 23099.4,5557.08C23099.4,5557.08 23099.4,5361.44 23099.4,5361.44L23268.8,5263.62ZM23268.8,5298.51L23408.1,5378.9C23408.1,5415.02 23408,5502.31 23408,5539.66C23408,5539.66 23307.6,5597.61 23268.8,5620.03C23268.8,5620.03 23129.6,5539.62 23129.6,5539.62C23129.6,5539.62 23129.6,5378.89 23129.6,5378.89C23161.8,5360.32 23236.7,5317.07 23268.8,5298.51L23268.8,5298.51Z" style="fill:white;"/>
            </g>
        </g>
    </g>
</svg>
