<?xml version="1.0" encoding="UTF-8" standalone="no"?>
<!DOCTYPE svg PUBLIC "-//W3C//DTD SVG 1.1//EN" "http://www.w3.org/Graphics/SVG/1.1/DTD/svg11.dtd">
<svg width="100%" height="100%" viewBox="0 0 600 400" version="1.1" xmlns="http://www.w3.org/2000/svg" xmlns:xlink="http://www.w3.org/1999/xlink" xml:space="preserve" xmlns:serif="http://www.serif.com/" style="fill-rule:evenodd;clip-rule:evenodd;stroke-linejoin:round;stroke-miterlimit:2;">
    <rect id="Artboard1" x="0" y="0" width="600" height="400" style="fill:none;"/>
    <g id="Artboard11" serif:id="Artboard1">
        <g transform="matrix(2.09028,0,0,2.09028,300,200)">
            <g transform="matrix(1,0,0,1,-133.25,-30.745)">
                <clipPath id="_clip1">
                    <rect x="0" y="0" width="266.5" height="61.49"/>
                </clipPath>
                <g clip-path="url(#_clip1)">
                    <g id="Layer_2">
                        <g id="Layer_1-2">
                            <path d="M4.87,26.17C4.87,18.84 4.87,17.48 4.78,15.94C4.69,14.4 4.3,13.52 2.71,13.19C2.088,13.065 1.455,13.002 0.82,13C0.29,13 0,13 0,12.6C0,12.2 0.35,12.17 1.06,12.17C3.62,12.17 6.66,12.31 7.61,12.31C9.99,12.31 11.87,12.17 13.51,12.17C22.24,12.17 23.78,16.85 23.78,19.41C23.78,23.36 21.51,25.72 18.85,27.84C22.85,29.2 27.64,32.62 27.64,38.27C27.64,43.42 23.64,48.77 14.76,48.77C14.18,48.77 12.76,48.68 11.39,48.64C10.02,48.6 8.48,48.48 7.78,48.48C7.23,48.48 6.18,48.48 5.02,48.53C3.86,48.58 2.66,48.64 1.69,48.64C1.06,48.64 0.69,48.48 0.69,48.14C0.69,47.8 0.88,47.77 1.46,47.77C2.047,47.773 2.631,47.703 3.2,47.56C4.2,47.38 4.42,46.32 4.61,44.91C4.84,42.91 4.84,39.08 4.84,34.65L4.87,26.17ZM10.66,26.98C10.66,27.37 10.81,27.47 11,27.51C11.75,27.63 12.51,27.68 13.27,27.66C14.501,27.803 15.742,27.474 16.74,26.74C17.99,25.74 18.74,23.99 18.74,21.63C18.74,18.4 16.87,14.16 12.74,14.16C12.212,14.139 11.683,14.169 11.16,14.25C10.82,14.34 10.72,14.54 10.72,15.07L10.66,26.98ZM17,30.84C15.82,30.048 14.421,29.645 13,29.69C12.13,29.64 11.65,29.64 10.92,29.64C10.73,29.64 10.63,29.73 10.63,29.96L10.63,41.41C10.63,44.58 10.78,45.41 12.32,46.03C13.441,46.462 14.64,46.656 15.84,46.6C18.02,46.6 21.68,45.44 21.68,40.44C21.792,36.669 20.04,33.075 17,30.84ZM38,26.17C38,18.84 38,17.48 37.91,15.94C37.82,14.4 37.43,13.52 35.84,13.19C35.234,13.068 34.618,13.004 34,13C33.46,13 33.18,12.91 33.18,12.56C33.18,12.21 33.52,12.13 34.25,12.13C35.53,12.13 36.94,12.18 38.15,12.18C39.36,12.18 40.51,12.27 41.15,12.27L53.21,12.27C53.901,12.216 54.588,12.126 55.27,12C55.523,11.91 55.784,11.846 56.05,11.81C56.27,11.81 56.33,12 56.33,12.24C56.16,13.273 56.05,14.315 56,15.36C55.95,15.84 55.84,17.96 55.75,18.53C55.7,18.78 55.61,19.07 55.27,19.07C54.93,19.07 54.84,18.84 54.84,18.4C54.843,17.811 54.745,17.226 54.55,16.67C54.22,15.79 53.72,15.2 51.31,14.93C50.49,14.82 45.44,14.73 44.47,14.73C44.21,14.73 44.13,14.88 44.13,15.2L44.13,27.42C44.13,27.75 44.18,27.95 44.47,27.95C45.53,27.95 51.07,27.95 52.2,27.84C53.029,27.896 53.85,27.639 54.5,27.12C54.84,26.74 55.02,26.49 55.27,26.49C55.52,26.49 55.61,26.59 55.61,26.88C55.61,27.17 55.41,27.95 55.2,30.4C55.2,31.4 55.02,33.29 55.02,33.63C55.02,33.97 55.02,34.56 54.59,34.56C54.572,34.562 54.554,34.564 54.536,34.564C54.322,34.564 54.146,34.388 54.146,34.174C54.146,34.156 54.148,34.138 54.15,34.12C54.134,33.533 54.07,32.947 53.96,32.37C53.72,31.37 53.05,30.7 51.27,30.5C50.36,30.4 45.57,30.36 44.41,30.36C44.18,30.36 44.13,30.54 44.13,30.84L44.13,42.12C44.21,45.44 45,46.17 49.91,46.17C51.446,46.263 52.986,46.066 54.45,45.59C55.65,45 56.23,44 56.56,42C56.67,41.47 56.77,41.29 57.1,41.29C57.43,41.29 57.49,41.66 57.49,42.15C57.408,43.946 57.197,45.734 56.86,47.5C56.53,48.75 56.08,48.75 54.25,48.75C50.64,48.75 47.98,48.66 45.91,48.62C43.84,48.58 42.35,48.46 40.91,48.46C40.39,48.46 39.33,48.46 38.15,48.51C36.97,48.56 35.79,48.62 34.84,48.62C34.22,48.62 33.84,48.46 33.84,48.12C33.84,47.78 34.02,47.75 34.62,47.75C35.2,47.752 35.778,47.682 36.34,47.54C37.34,47.36 37.56,46.3 37.75,44.89C37.98,42.89 37.98,39.06 37.98,34.63L38,26.17ZM68.48,26.17C68.48,18.84 68.48,17.48 68.39,15.94C68.3,14.4 67.91,13.52 66.31,13.19C65.691,13.064 65.061,13.001 64.43,13C63.89,13 63.6,12.91 63.6,12.56C63.6,12.21 63.95,12.13 64.66,12.13C65.98,12.13 67.37,12.18 68.57,12.18C69.77,12.18 70.94,12.27 71.57,12.27L83.63,12.27C84.338,12.219 85.042,12.129 85.74,12C85.991,11.914 86.248,11.851 86.51,11.81C86.75,11.81 86.81,12 86.81,12.24C86.615,13.278 86.481,14.326 86.41,15.38C86.41,15.86 86.28,17.98 86.17,18.55C86.17,18.8 86.04,19.09 85.69,19.09C85.34,19.09 85.26,18.86 85.26,18.42C85.275,17.826 85.187,17.234 85,16.67C84.66,15.79 84.18,15.2 81.78,14.93C80.95,14.82 75.88,14.73 74.93,14.73C74.67,14.73 74.58,14.88 74.58,15.2L74.58,27.42C74.58,27.75 74.64,27.95 74.93,27.95C75.93,27.95 81.53,27.95 82.64,27.84C83.473,27.897 84.297,27.64 84.95,27.12C85.29,26.74 85.48,26.49 85.72,26.49C85.96,26.49 86.07,26.59 86.07,26.88C86.07,27.17 85.87,27.95 85.68,30.4C85.63,31.4 85.48,33.29 85.48,33.63C85.48,33.97 85.48,34.56 85.05,34.56C85.032,34.562 85.014,34.564 84.996,34.564C84.782,34.564 84.606,34.388 84.606,34.174C84.606,34.156 84.608,34.138 84.61,34.12C84.603,33.532 84.542,32.947 84.43,32.37C84.18,31.37 83.51,30.7 81.72,30.5C80.8,30.4 76.02,30.36 74.88,30.36C74.64,30.36 74.58,30.54 74.58,30.84L74.58,42.12C74.67,45.44 75.46,46.17 80.38,46.17C81.913,46.263 83.45,46.066 84.91,45.59C86.14,45 86.71,44 87,42C87.1,41.47 87.19,41.29 87.53,41.29C87.87,41.29 87.93,41.66 87.93,42.15C87.843,43.946 87.633,45.733 87.3,47.5C86.95,48.75 86.51,48.75 84.69,48.75C81.07,48.75 78.41,48.66 76.34,48.62C74.27,48.58 72.78,48.46 71.34,48.46C70.81,48.46 69.75,48.46 68.6,48.51C67.45,48.56 66.23,48.62 65.26,48.62C64.63,48.62 64.26,48.46 64.26,48.12C64.26,47.78 64.45,47.75 65.04,47.75C65.623,47.752 66.204,47.682 66.77,47.54C67.77,47.36 67.97,46.3 68.16,44.89C68.41,42.89 68.41,39.06 68.41,34.63L68.48,26.17ZM98,7.83C96.17,3.42 94.8,2.54 92,1.74C90.973,1.508 89.922,1.404 88.87,1.43C88.15,1.43 87.87,1.19 87.87,0.71C87.87,0.06 88.75,0 89.95,0C94.18,0 98.73,0.23 101.52,0.23C103.52,0.23 107.35,0 111.35,0C112.35,0 113.19,0.15 113.19,0.71C113.19,1.27 112.71,1.43 111.98,1.43C110.915,1.32 109.839,1.514 108.88,1.99C108.336,2.369 108.031,3.009 108.08,3.67C108.419,5.792 109.038,7.86 109.92,9.82L123.65,46.07L123.97,46.07C127.4,37.3 137.79,11.57 139.71,6.29C140.102,5.354 140.345,4.362 140.43,3.35C140.467,2.666 140.033,2.038 139.38,1.83C138.343,1.534 137.268,1.399 136.19,1.43C135.47,1.43 134.83,1.35 134.83,0.79C134.83,0.23 135.49,0 137,0C141,0 144.36,0.23 145.38,0.23C146.74,0.23 150.51,0 152.89,0C153.89,0 154.57,0.15 154.57,0.71C154.57,1.27 154.09,1.43 153.29,1.43C151.92,1.369 150.562,1.718 149.39,2.43C148.33,3.15 147.15,4.52 144.99,9.62C141.88,17.13 139.72,21.45 135.4,31.28C130.3,42.93 126.54,51.64 124.77,55.63C122.71,60.27 122.23,61.54 121.11,61.54C119.99,61.54 119.59,60.43 118.06,56.67L98,7.83ZM159,26.17C159,18.84 159,17.48 158.9,15.94C158.8,14.4 158.33,13.47 157.27,13.23C156.707,13.095 156.129,13.031 155.55,13.04C155.06,13.04 154.76,12.95 154.76,12.55C154.76,12.15 155.16,12.17 155.92,12.17C157.75,12.17 160.78,12.31 162.18,12.31C163.41,12.31 166.24,12.17 168.08,12.17C168.7,12.17 169.08,12.27 169.08,12.55C169.08,12.83 168.82,13.04 168.33,13.04C167.843,13.044 167.358,13.095 166.88,13.19C165.58,13.42 165.18,14.25 165.09,15.94C165,17.63 165,18.84 165,26.17L165,34.65C165,39.33 165,43.14 165.18,45.21C165.33,46.51 165.68,47.38 167.11,47.56C167.928,47.686 168.753,47.756 169.58,47.77C170.1,47.77 170.35,47.91 170.35,48.14C170.35,48.37 169.96,48.64 169.44,48.64C166.25,48.64 163.2,48.48 161.91,48.48C160.79,48.48 157.76,48.64 155.84,48.64C155.21,48.64 154.84,48.48 154.84,48.14C154.84,47.8 155.03,47.77 155.6,47.77C156.187,47.773 156.771,47.703 157.34,47.56C158.34,47.38 158.6,46.56 158.74,45.16C158.97,43.16 158.97,39.33 158.97,34.65L159,26.17ZM187.21,14.88L180.03,15.07C177.24,15.16 176.09,15.41 175.36,16.47C174.994,16.984 174.717,17.555 174.54,18.16C174.44,18.53 174.29,18.74 174,18.74C173.71,18.74 173.57,18.49 173.57,17.96C173.57,17.2 174.48,12.8 174.57,12.41C174.73,11.79 174.86,11.5 175.15,11.5C175.823,11.759 176.52,11.954 177.23,12.08C178.62,12.22 180.47,12.31 182.04,12.31L201.14,12.31C202.254,12.309 203.367,12.232 204.47,12.08C204.898,11.973 205.332,11.893 205.77,11.84C206.11,11.84 206.16,12.13 206.16,12.84C206.16,13.84 206.02,17.19 206.02,18.44C205.96,18.91 205.88,19.2 205.58,19.2C205.28,19.2 205.1,18.96 205.06,18.2L205,17.68C204.9,16.42 203.59,15.06 199.31,14.97L193.25,14.83L193.25,34.65C193.25,39.08 193.25,42.89 193.47,44.97C193.63,46.32 193.91,47.38 195.36,47.56C196.171,47.686 196.99,47.756 197.81,47.77C198.35,47.77 198.6,47.91 198.6,48.14C198.6,48.37 198.2,48.64 197.67,48.64C194.48,48.64 191.46,48.48 190.1,48.48C188.99,48.48 185.96,48.64 184.03,48.64C183.4,48.64 183.03,48.48 183.03,48.14C183.03,47.8 183.21,47.77 183.8,47.77C184.383,47.772 184.964,47.701 185.53,47.56C186.53,47.38 186.78,46.32 186.93,44.91C187.16,42.91 187.16,39.08 187.16,34.65L187.21,14.88ZM214,36C213.77,36 213.66,36.1 213.57,36.39L211,43.33C210.601,44.264 210.357,45.257 210.28,46.27C210.28,47.14 210.71,47.77 212.21,47.77L212.93,47.77C213.5,47.77 213.65,47.86 213.65,48.14C213.65,48.42 213.36,48.64 212.84,48.64C211.29,48.64 209.23,48.48 207.72,48.48C207.19,48.48 204.53,48.64 202.03,48.64C201.4,48.64 201.11,48.53 201.11,48.14C201.11,47.75 201.31,47.77 201.69,47.77C202.07,47.77 202.81,47.71 203.18,47.67C205.4,47.38 206.32,45.74 207.28,43.33L219.34,13C219.93,11.6 220.21,11.07 220.69,11.07C221.17,11.07 221.42,11.52 221.9,12.62C223.05,15.27 230.77,34.95 233.9,42.27C235.73,46.62 237.13,47.27 238.14,47.52C238.798,47.655 239.468,47.725 240.14,47.73C240.53,47.73 240.77,47.73 240.77,48.1C240.77,48.47 240.33,48.6 238.56,48.6C236.79,48.6 233.3,48.6 229.43,48.49C228.56,48.44 227.99,48.44 227.99,48.1C227.99,47.76 228.18,47.73 228.67,47.67C228.983,47.562 229.195,47.265 229.195,46.933C229.195,46.803 229.162,46.674 229.1,46.56L225.24,36.34C225.18,36.129 224.979,35.987 224.76,36L214,36ZM223.83,33.59C224.08,33.59 224.13,33.45 224.08,33.31L219.73,21.39C219.73,21.21 219.64,20.96 219.49,20.96C219.34,20.96 219.25,21.21 219.2,21.39L214.77,33.25C214.71,33.45 214.77,33.59 214.97,33.59L223.83,33.59ZM251.83,34.59C251.83,40.76 251.83,44.07 252.83,44.95C253.65,45.68 254.9,46.01 258.67,46.01C261.23,46.01 263.1,46.01 264.31,44.66C264.979,43.822 265.414,42.821 265.57,41.76C265.62,41.35 265.71,41.05 266.09,41.05C266.47,41.05 266.48,41.29 266.48,41.87C266.374,43.735 266.13,45.591 265.75,47.42C265.47,48.47 265.23,48.71 262.75,48.71C259.29,48.71 256.75,48.62 254.59,48.58C252.43,48.54 250.7,48.42 248.73,48.42C248.19,48.42 247.13,48.42 245.98,48.47C244.83,48.52 243.62,48.58 242.65,48.58C242.02,48.58 241.65,48.42 241.65,48.08C241.65,47.74 241.85,47.71 242.42,47.71C243.003,47.712 243.584,47.642 244.15,47.5C245.15,47.32 245.36,46.26 245.55,44.85C245.78,42.85 245.78,39.02 245.78,34.59L245.78,26.17C245.78,18.84 245.78,17.48 245.69,15.94C245.6,14.4 245.21,13.52 243.61,13.19C243.094,13.079 242.567,13.028 242.04,13.04C241.5,13.04 241.21,12.95 241.21,12.6C241.21,12.25 241.55,12.17 242.29,12.17C244.55,12.17 247.57,12.31 248.88,12.31C250.04,12.31 253.55,12.17 255.44,12.17C256.12,12.17 256.44,12.27 256.44,12.6C256.44,12.93 256.16,13.04 255.59,13.04C254.957,13.041 254.325,13.091 253.7,13.19C252.39,13.42 252.01,14.25 251.91,15.94C251.81,17.63 251.83,18.84 251.83,26.17L251.83,34.59Z" style="fill:rgb(137,134,135);fill-rule:nonzero;"/>
                        </g>
                    </g>
                </g>
            </g>
        </g>
    </g>
</svg>
