<?xml version="1.0" encoding="UTF-8" standalone="no"?>
<!DOCTYPE svg PUBLIC "-//W3C//DTD SVG 1.1//EN" "http://www.w3.org/Graphics/SVG/1.1/DTD/svg11.dtd">
<svg width="100%" height="100%" viewBox="0 0 600 400" version="1.1" xmlns="http://www.w3.org/2000/svg" xmlns:xlink="http://www.w3.org/1999/xlink" xml:space="preserve" xmlns:serif="http://www.serif.com/" style="fill-rule:evenodd;clip-rule:evenodd;stroke-linejoin:round;stroke-miterlimit:2;">
    <rect id="Artboard1" x="0" y="0" width="600" height="400" style="fill:none;"/>
    <g id="Artboard11" serif:id="Artboard1">
        <g transform="matrix(1.19582,0,0,1.19582,300.516,200)">
            <g transform="matrix(1,0,0,1,-233.35,-83)">
                <g>
                    <path d="M25.9,23.8C26.6,21.9 27.7,20.5 28.7,18.9C32.9,15.4 43.5,12.9 46.3,17.8C48.8,26.6 37.9,32.4 29.5,30.2C28.8,33 33.5,33.5 37,33.7C49.8,34.2 58.3,15.6 46.6,12.4C35.6,10.8 25.8,15.7 20.7,23.6C15.8,37.8 26,41.9 27.9,51.5C27.9,53.2 27.1,54.5 26.5,56.4C23.6,61.8 9.1,63.6 11.5,55C12.6,52.7 14.6,51.6 17.5,51.6C20.4,51.9 18.9,55.8 21.1,56.8C22.6,56.3 23.4,55 23.7,53.1C22.3,45.3 4.9,48.5 5.7,58.8C9.7,68.9 31.8,63.8 33.1,50.2C33.5,39 23.4,36.5 25.9,23.8Z" style="fill-rule:nonzero;"/>
                    <path d="M298.8,56.8C301.9,56.8 304.7,54 304.8,50.8C304.8,47.4 302.2,44.6 299.2,44.6C296.2,44.6 293.6,47.4 293.6,50.8C293.5,52.5 294.1,54.2 295.2,55.3C296.2,56.3 297.5,56.8 298.8,56.8Z" style="fill-rule:nonzero;"/>
                    <path d="M401.7,65.1C402.2,65.1 402.8,65 403.4,64.8L403.5,64.7C405.5,63.4 409.1,60.7 412.4,57.2C417.2,52 419.3,48.3 419.4,45.1C419.5,43.7 419,42.5 418.2,41.5C417.2,40.5 415.8,39.9 414.2,39.9C410.2,39.9 407.2,43.5 407.2,46.7C407,48.5 408.1,50 410.1,50.9C408.4,55.5 403.3,60.3 401.7,61.7L401.6,61.8C400.2,62.6 399.6,63.4 399.8,64.1C400,64.7 400.7,65.1 401.7,65.1Z" style="fill-rule:nonzero;"/>
                    <path d="M458.8,94.5C451.3,103.2 441.8,104.8 438.7,104.5C440.3,94.2 431.8,81.6 432,78.2C432.3,68.7 446.9,74.4 447.8,70.5C449.1,65.6 442.7,63.8 438.7,64.5C426.6,66.7 416.5,88 407,97.1C406,96.1 403.9,94.5 402.6,94.5C399.5,94.5 398.4,97.4 398.4,100.2C398.1,112.6 411.6,119.8 421.1,119.8C427.8,119.8 435.6,116.5 438.1,108.9C440.1,109.1 445.6,108.2 450.5,105.5C454.6,103.4 458.3,99.1 460.5,96.4C461.9,94.7 460.2,92.7 458.8,94.5ZM420.4,115.1C412.6,115.3 406.5,111.7 406.7,102C413.2,106.4 422.7,108 430.4,108.2C427.7,112.9 423.8,115.1 420.4,115.1ZM430.5,104.3C423.3,103.8 416.3,101.5 409.8,98.8C415.4,92.8 420.2,86.7 425.1,80C425.9,86.9 430.7,98.1 430.5,103.8L430.5,104.3Z" style="fill-rule:nonzero;"/>
                    <path d="M392.3,95.9C388.8,95.2 385.3,95 381.8,95.2C384.2,86.8 390.7,63.8 390.9,57.7C390.9,57.2 390.8,56.7 390.4,56.3C389.4,55.2 387.3,55 386.5,55C384.8,55 382.4,55.3 381.7,58.2C374.5,75.6 363.1,88.2 359,88.2C358.6,88.2 358.4,88.1 358.2,87.9C357.7,87.4 357.7,86.1 357.7,85L357.7,84.7C357.8,81 361.4,75.8 364,72C365.8,69.4 366.7,68 366.7,67.2C366.7,65.3 364.4,64.5 362.8,64.5C357.6,64.5 352.9,71.2 350.4,77.7C344.8,83.8 334.9,93.9 325.4,93.9C323.4,93.9 321.9,93.4 320.9,92.3C319.5,90.9 318.9,88.5 319,84.9C319,83.9 319.1,83 319.3,82C319.4,81.5 319.4,81 319.5,80.4C331.7,70.3 375.9,30 376.4,12.2C376.5,10.4 375.7,8.4 374.3,6.9C372.9,5.4 371,4.6 369.3,4.6C360.4,4.6 346.6,16.3 332.5,35.9C320.5,52.6 311.9,70 310.3,80.4C307.1,83.9 303.4,87.7 301,89.6C297.3,92.3 293.4,94.9 290.2,95.2L289.4,95.2C287.9,95.2 286.8,94.8 286.1,94C285,92.7 284.7,90.4 285.2,87.2C286.2,81.5 289.7,76.5 292.3,72.9C293.9,70.7 295,69.1 295.1,67.9C295.1,64.9 292.4,63.1 290,63.1C286.1,63.1 281.9,71.2 279.2,78.3C274.8,82.9 265.1,92.6 254.8,92.6C252.4,92.6 250.6,91.9 249.3,90.7C247.8,89.1 247,86.6 247.1,83.2C247.4,74.7 255,63.4 262.3,63.4C263.2,63.4 264.3,63.5 264.9,64.1C265.2,64.5 265.4,65 265.3,65.7C265.3,66.3 265,67 264.8,67.7C264.5,68.4 264.2,69.2 264.1,70.2C264.1,71.6 264.9,72.7 266,72.7C269.4,72.7 273.4,66.1 273.6,63.3C273.7,61.8 273.3,60.7 272.4,59.8C271.3,58.6 269.4,58 266.8,58C257.4,58 242.8,68.5 238.3,79.1C237.6,79.9 236.8,80.8 235.8,81.8L235.7,81.9C230.7,87.2 224.5,93.8 216.2,93.8C214.2,93.8 212.5,93.2 211.4,92C210,90.5 209.2,88.1 209.3,85.2C209.3,84 209.6,82.9 209.8,81.7C216.7,79 231.9,69.1 232,61C232.1,59.3 231.6,57.8 230.6,56.8C229.6,55.8 228.2,55.2 226.6,55.2C216.2,55.2 203.3,68.3 200.5,80.4C198.3,82.1 196.3,83.5 195.3,84.1C180,93.6 163.8,98.2 145.8,98.2C139.6,98.2 134,96.1 130.4,92.3C127.2,89 125.7,84.6 125.8,79.3C126.7,55.2 171.9,18.1 209.8,18.1C216.1,18.1 220.8,20.1 222.5,23.4C224,26.4 223.1,30.4 219.8,35C213.6,43.7 200.7,48.9 191.9,48.9C188,48.9 185.4,48.2 184,46.7C183,45.6 182.5,44.1 182.6,42C182.6,41.6 182.7,41.1 182.8,40.6C183,39.4 183.2,38 182.5,37.2C182.1,36.7 181.4,36.4 180.4,36.4C178.4,36.4 177.1,41 177,43.5C176.9,46.2 177.6,48.5 179.2,50.1C181.4,52.4 185.2,53.5 190.5,53.5C203.9,53.5 229.3,43.5 230,24.4C230.1,20.9 229.1,18.1 227,16C223.7,12.6 218,11 209.5,11C194.3,11 178.2,15.5 163,24C153.3,29.2 139.8,38.3 129.4,49.7C124.4,55 120.2,57.7 116.9,57.7C116.2,57.7 115.7,57.5 115.3,57.1C114.8,56.6 114.6,55.6 114.6,54.3C114.7,51.1 117.3,45.7 119.1,42.6C128.2,42.6 128.2,41.3 128.2,40.8C128.1,39.8 127.2,39.4 125.6,39.4L121,39.4C123.4,36 125.9,33.1 129.1,29.8C129.2,29.7 129.3,29.6 129.4,29.5C129.9,29 130.5,28.4 130.2,27.4C129.9,26.1 128.3,26.1 127.7,26.1C122.3,26.1 117.6,34.6 115.1,39.3L110.1,39L109.8,39C108.7,39 108,39.6 108,40.5C108,41.3 108.2,41.9 108.6,42.3C109.4,43.1 110.9,43.3 113,43C111.9,45 110.8,47.6 110.1,50.1C109.7,50.6 109.2,51.1 108.6,51.8C106.1,54.5 102.9,57.8 98.7,57.8C97.7,57.8 97,57.5 96.4,56.9C95.7,56.2 95.4,55 95.4,53.6C95.4,53 95.5,52.5 95.6,52C98.9,50.7 106.9,45.7 107,41.2C107,40.3 106.8,39.4 106.2,38.9C105.7,38.3 104.9,38 103.9,38C98.5,38 91.8,44.7 90.3,51C90.1,51.2 89.9,51.4 89.7,51.7C87.2,54.4 84,57.7 79.8,57.7C78.8,57.7 78,57.4 77.5,56.8C76.8,56.1 76.5,54.9 76.5,53.5C76.5,52.9 76.6,52.4 76.7,51.9C80,50.6 88,45.6 88.1,41.1C88.1,40.2 87.9,39.3 87.3,38.8C86.8,38.2 86,37.9 85,37.9C79.6,37.9 72.9,44.6 71.4,50.9C70.1,52.2 68.9,52.8 67.1,52.8C65.7,52.8 65.2,51 64.8,48.9C65.2,47.9 65.6,46.9 65.6,45.8C65.7,44.3 65.1,42.7 64.1,41.7C63.4,41 62.5,40.6 61.6,40.6C60.3,40.6 59.4,41.4 59.4,42.7C59.3,43.6 60.1,46.5 60.9,49.6L61,50C59.8,53 57.2,57.6 54.9,57.6C54.4,57.6 54,57.5 53.7,57.2C53.4,56.9 53.3,56.4 53.3,55.7C53.5,51.5 56.1,47.6 56.9,46.5L57,46.4L57,46.3C57,45.7 56.9,45.2 56.5,44.8C56.1,44.4 55.5,44.1 54.7,44.1C54.1,44.1 53.6,44.2 53,44.5L52.8,44.7C52.3,45.4 51.7,46.3 51.1,47.2C49.2,51.4 45.5,57 40,59.2C39.5,59.4 39.2,59.4 39.1,59.4C38.9,59.4 38.8,59.3 38.8,59.3C38.4,58.6 39.4,56.3 40.2,54.8C42.4,50.2 46.9,45.7 48.4,44.2C48.7,44 48.8,43.7 49,43.5L49.2,43.2L49.2,43C49.2,41.9 48.2,41.5 47.2,41.5C41,41.5 34.6,53.7 34.4,59.3C34.4,61.6 35.6,63 37.6,63C40.8,63 45.8,58.6 49.7,54.5C49.8,56.7 50.3,58.3 51.2,59.3C52.1,60.2 53.2,60.6 54.9,60.6C58.4,60.6 61.5,57.1 63.1,53.6C64.3,55.2 65.9,56.1 67.7,56.1C69.1,56.1 70.5,55.5 71.7,54.6C71.9,56.3 72.5,57.7 73.5,58.8C74.9,60.3 77.1,61 79.7,61C83,61 86.6,58.9 90.5,54.9C90.7,56.5 91.3,57.8 92.3,58.8C93.7,60.3 95.9,61 98.5,61C102,61 105.8,58.8 109.8,54.3C109.8,56.5 110.3,58.2 111.4,59.3C112.4,60.3 113.9,60.9 115.7,60.9C118.1,60.9 120.3,60.1 122.5,58.8C117.5,66.1 114.2,74 114,82.1C113.8,87.7 115.5,92.4 118.9,96C126,103.3 138.7,104.1 143.8,104.1C158.7,104.1 183.7,97.3 200.1,86C200.3,89.4 201.5,92.2 203.5,94.3C206.2,97.1 210.3,98.5 215.3,98.5C222,98.5 229.3,94.1 237.1,85.5C237.1,89.7 238.2,93 240.3,95.2C242.5,97.4 245.7,98.6 249.9,98.6C259.9,98.6 269.6,92.2 277,85.5C276.8,86.2 276.7,86.8 276.6,87.2C276,91.2 276.7,94.4 278.7,96.7C280.6,98.9 283.7,100.1 287.6,100.1C293.6,100.1 298.7,96.3 303.9,92.1C304.8,91.3 307.6,88.6 310.4,85.6C310.7,90.1 312.1,93.8 314.4,96.2C316.6,98.5 319.5,99.6 323.1,99.6C333.1,99.6 342.3,91.9 348.4,85.4C348.5,85.2 348.7,85 348.9,84.8L348.9,85.4C348.8,89.2 349.6,92.1 351.2,93.7C352.3,94.8 353.8,95.4 355.6,95.4C363.5,95.4 373.7,81.4 378.7,72.4C377.3,79.4 375,89 373.1,95.4C353.4,98.5 304.4,117.3 303.4,143.9C303.3,148.6 304.7,152.4 307.6,155.5C311.1,159.1 316.7,161.2 322.9,161.2C351,161.2 371.3,129.3 380.9,99.5L381,99.2C384.5,99.2 388,99.5 391.4,100.4L391.5,100.4C392.9,100.7 394.2,99.8 394.4,98.4C394.6,97.4 393.7,96.1 392.3,95.9ZM332.8,48.8C341.8,34.2 359,9.5 367,9.5C367.3,9.5 367.9,9.5 367.9,11.1C367.3,25.4 336,62.3 320.6,74.3C323.1,66.7 327.2,58.3 332.8,48.8ZM216.3,68.2C218,65.9 221,62.2 222.6,61.4C223.3,61.1 223.9,60.9 224.5,60.9C225,60.9 225.3,61 225.5,61.3C225.7,61.6 226,62.6 224.8,65.3C224,67.1 221.3,70 219.1,72C216.6,74.1 213.1,76.3 211,77.2C212,74.6 213.6,71.5 216.3,68.2ZM99.2,45.2C100,44.1 101.6,42.2 102.3,41.8C102.6,41.6 102.9,41.6 103.1,41.6C103.3,41.6 103.4,41.7 103.4,41.7C103.4,41.8 103.6,42.2 103,43.5C102.6,44.4 101.3,45.8 100.1,46.9C99,47.8 97.6,48.7 96.6,49.3C97.3,48.1 98,46.7 99.2,45.2ZM80.4,45.2C81.2,44.1 82.8,42.2 83.5,41.8C83.8,41.6 84.1,41.6 84.3,41.6C84.5,41.6 84.6,41.7 84.6,41.7C84.6,41.8 84.8,42.2 84.2,43.5C83.8,44.4 82.5,45.8 81.3,46.9C80.2,47.8 78.8,48.7 77.8,49.3C78.5,48.1 79.2,46.7 80.4,45.2ZM324.4,157.3C320.1,157.3 315.9,155.6 313.3,153C311.4,151.1 310.5,148.7 310.6,146L310.8,143.5C311.5,121.9 354.3,103.6 372.6,100.4C365.1,128 347,157.3 324.4,157.3Z" style="fill-rule:nonzero;"/>
                </g>
            </g>
        </g>
    </g>
</svg>
